# xmcd CD database file
#
# Track frame offsets:
#	150
#	27862
#	47475
#
# Disc length: 1003 seconds
#
# Revision: 0
# Processed by: cddbd v1.5PL3 Copyright (c) Steve Scherf et al.
# Submitted via: CDex 1.40Release
#
DISCID=1903e903
DTITLE=スチャダラパー featuring 小沢健二 - 今夜はブギー・バック (smooth rap)
DYEAR=1994
DGENRE=JPop
TTITLE0=今夜はブギー・バック (smooth rap)
TTITLE1=今夜はブギー・バック (Live at BIG EGG?)
TTITLE2=今夜はブギー・バック (ラップ用カラオケ)
EXTD=YEAR: 1994
EXTT0=
EXTT1=
EXTT2=
PLAYORDER=
